<svg width="247" height="258" viewBox="0 0 247 258" fill="none" xmlns="http://www.w3.org/2000/svg">
<path fill-rule="evenodd" clip-rule="evenodd" d="M123.5 235.39C179.266 235.39 224.474 190.195 224.474 134.446C224.474 78.6959 179.266 33.5018 123.5 33.5018C67.7338 33.5018 22.5264 78.6959 22.5264 134.446C22.5264 190.195 67.7338 235.39 123.5 235.39Z" stroke="#3ABB5D" stroke-width="0.305962" stroke-dasharray="1.84 1.84"/>
<path fill-rule="evenodd" clip-rule="evenodd" d="M123.5 256.802C191.095 256.802 245.892 202.021 245.892 134.446C245.892 66.8702 191.095 12.0895 123.5 12.0895C55.9046 12.0895 1.10767 66.8702 1.10767 134.446C1.10767 202.021 55.9046 256.802 123.5 256.802Z" stroke="#3ABB5D" stroke-width="0.305962" stroke-dasharray="1.84 1.84"/>
<path d="M205.415 173.426C205.418 159.181 194.577 147.273 180.39 145.939C166.203 144.606 153.331 154.284 150.678 168.281L65.8228 165.98L66.7543 180.554C66.7543 180.554 54.6544 208.464 118.247 215.901V244.111H191.764V197.208C200.212 192.263 205.407 183.213 205.415 173.426Z" fill="url(#paint0_linear_2166_1639)"/>
<path d="M69.6678 181.165C69.6678 181.165 58.0813 207.893 118.982 215.024V242.051H189.388V170.476L68.7634 167.207L69.6678 181.165Z" fill="#FFCBB4"/>
<path d="M104.856 69.6275C101.034 75.6563 93.0594 77.4679 87.0068 73.6823L49.2045 48.7794C43.1739 44.9588 41.3618 36.9866 45.1486 30.9357C48.9697 24.9152 56.9341 23.1045 62.9839 26.881L100.786 51.7839C106.822 55.6 108.64 63.5732 104.856 69.6275Z" fill="url(#paint1_linear_2166_1639)"/>
<path d="M102.761 68.268C99.2088 73.8719 91.7964 75.5559 86.1702 72.0372L51.0198 48.8711C45.4143 45.3198 43.7298 37.9095 47.2495 32.2851C50.8018 26.6812 58.2143 24.9971 63.8404 28.5158L98.984 51.6683C104.6 55.218 106.289 62.6389 102.761 68.268Z" fill="#FFCBB4"/>
<path d="M176.023 200.77C190.626 200.77 202.464 188.935 202.464 174.337C202.464 159.739 190.626 147.905 176.023 147.905C161.421 147.905 149.583 159.739 149.583 174.337C149.583 188.935 161.421 200.77 176.023 200.77Z" fill="#FFCBB4"/>
<path d="M171.264 1.62125e-05H69.9772C67.6771 1.62125e-05 65.8125 1.86408 65.8125 4.16353V193.632C65.8125 195.932 67.6771 197.796 69.9772 197.796H171.264C173.564 197.796 175.428 195.932 175.428 193.632V4.16353C175.428 1.86408 173.564 1.62125e-05 171.264 1.62125e-05Z" fill="url(#paint2_linear_2166_1639)"/>
<path d="M169.305 2.67486H71.9286C69.3675 2.67486 67.2913 4.75044 67.2913 7.3108V190.492C67.2913 193.052 69.3675 195.128 71.9286 195.128H169.305C171.866 195.128 173.943 193.052 173.943 190.492V7.3108C173.943 4.75044 171.866 2.67486 169.305 2.67486Z" fill="white"/>
<path d="M131.972 9.80211H109.564C109.189 9.80211 108.884 10.1064 108.884 10.4819V10.6076C108.884 10.983 109.189 11.2874 109.564 11.2874H131.972C132.348 11.2874 132.652 10.983 132.652 10.6076V10.4819C132.652 10.1064 132.348 9.80211 131.972 9.80211Z" fill="#DBDBDB"/>
<path d="M137.701 11.5042C138.313 11.5042 138.809 11.0084 138.809 10.3969C138.809 9.78536 138.313 9.2896 137.701 9.2896C137.089 9.2896 136.593 9.78536 136.593 10.3969C136.593 11.0084 137.089 11.5042 137.701 11.5042Z" fill="#DBDBDB"/>
<path d="M193.114 179C185.441 180.775 180.174 175.772 178.4 168.104L160.768 102.653C159.014 94.9561 163.806 87.2869 171.495 85.4862C179.194 83.7325 186.866 88.5228 188.667 96.2094L203.055 163.349C204.83 171.02 200.784 177.226 193.114 179Z" fill="url(#paint3_linear_2166_1639)"/>
<path d="M186.689 97.8116C185.193 91.339 178.732 87.3044 172.257 88.7999C165.783 90.2953 161.747 96.7547 163.243 103.227L179.456 173.376C180.951 179.848 187.413 183.883 193.887 182.387C200.362 180.892 204.397 174.432 202.902 167.96L186.689 97.8116Z" fill="#FFCBB4"/>
<path d="M186.689 97.8116C185.193 91.339 178.732 87.3044 172.257 88.7999C165.783 90.2953 161.747 96.7547 163.243 103.227L179.456 173.376C180.951 179.848 187.413 183.883 193.887 182.387C200.362 180.892 204.397 174.432 202.902 167.96L186.689 97.8116Z" fill="#FFCBB4"/>
<path d="M202.351 233.208H101.718V256.659H202.351V233.208Z" fill="url(#paint4_linear_2166_1639)"/>
<path d="M199.632 235.927H104.438V254.28H199.632V235.927Z" fill="#3470E9"/>
<path d="M90.182 139.84C86.4068 145.797 78.5275 147.587 72.5473 143.847L47.1951 127.448C41.2362 123.673 39.4453 115.797 43.1868 109.818C46.9621 103.861 54.8413 102.071 60.8215 105.811L86.1737 122.21C92.1326 125.984 93.9236 133.861 90.182 139.84Z" fill="url(#paint5_linear_2166_1639)"/>
<path d="M83.8176 174.551C80.0087 180.563 72.0577 182.37 66.0231 178.596L50.3195 167.149C44.3059 163.341 42.4982 155.392 46.2737 149.36C50.0827 143.348 58.0336 141.541 64.0682 145.315L79.7719 156.766C85.7834 160.573 87.5909 168.519 83.8176 174.551Z" fill="url(#paint6_linear_2166_1639)"/>
<g opacity="0.5">
<path d="M120.617 129.47C137.505 129.47 151.195 115.784 151.195 98.9012C151.195 82.0186 137.505 68.3326 120.617 68.3326C103.729 68.3326 90.0393 82.0186 90.0393 98.9012C90.0393 115.784 103.729 129.47 120.617 129.47Z" fill="url(#paint7_linear_2166_1639)"/>
</g>
<path d="M120.617 127.672C136.511 127.672 149.396 114.791 149.396 98.9012C149.396 83.0116 136.511 70.1305 120.617 70.1305C104.723 70.1305 91.8379 83.0116 91.8379 98.9012C91.8379 114.791 104.723 127.672 120.617 127.672Z" fill="#69F0AE"/>
<path d="M82.5496 173.698C78.9972 179.302 71.5847 180.986 65.9586 177.468L51.3123 166.809C45.7068 163.258 44.0222 155.847 47.542 150.223C51.0943 144.619 58.5068 142.935 64.1329 146.454L78.7758 157.133C84.3702 160.682 86.0548 168.077 82.5496 173.698Z" fill="#FFCBB4"/>
<path d="M88.7882 138.939C85.2358 144.543 77.8233 146.227 72.1972 142.708L48.3443 127.278C42.7387 123.726 41.0542 116.316 44.5739 110.692C48.1263 105.088 55.5388 103.404 61.1649 106.922L85.0178 122.353C90.6234 125.904 92.3079 133.314 88.7882 138.939Z" fill="#FFCBB4"/>
<path d="M96.7368 105.291C92.9429 111.274 85.0282 113.072 79.0205 109.315L46.8925 88.4024C40.9075 84.6096 39.1092 76.6972 42.8672 70.6913C46.6611 64.708 54.5758 62.9102 60.5835 66.6672L92.7115 87.5799C98.6965 91.3727 100.495 99.2851 96.7368 105.291Z" fill="url(#paint8_linear_2166_1639)"/>
<path d="M95.0302 104.203C91.4778 109.807 84.0654 111.491 78.4392 107.973L48.3477 88.3854C42.7422 84.8341 41.0576 77.4238 44.5774 71.7993C48.1297 66.1954 55.5422 64.5114 61.1683 68.0301L91.2564 87.6173C96.8632 91.1675 98.5493 98.578 95.0302 104.203Z" fill="#FFCBB4"/>
<path d="M129.8 89H112.2C110.99 89 110.011 89.99 110.011 91.2L110 111L114.4 106.6H129.8C131.01 106.6 132 105.61 132 104.4V91.2C132 89.99 131.01 89 129.8 89ZM126.5 102.2H115.5C114.895 102.2 114.4 101.705 114.4 101.1C114.4 100.495 114.895 100 115.5 100H126.5C127.105 100 127.6 100.495 127.6 101.1C127.6 101.705 127.105 102.2 126.5 102.2ZM126.5 98.9H115.5C114.895 98.9 114.4 98.405 114.4 97.8C114.4 97.195 114.895 96.7 115.5 96.7H126.5C127.105 96.7 127.6 97.195 127.6 97.8C127.6 98.405 127.105 98.9 126.5 98.9ZM126.5 95.6H115.5C114.895 95.6 114.4 95.105 114.4 94.5C114.4 93.895 114.895 93.4 115.5 93.4H126.5C127.105 93.4 127.6 93.895 127.6 94.5C127.6 95.105 127.105 95.6 126.5 95.6Z" fill="white"/>
<defs>
<linearGradient id="paint0_linear_2166_1639" x1="135.624" y1="244.128" x2="135.624" y2="145.821" gradientUnits="userSpaceOnUse">
<stop stop-color="#808080" stop-opacity="0.25"/>
<stop offset="0.54" stop-color="#808080" stop-opacity="0.12"/>
<stop offset="1" stop-color="#808080" stop-opacity="0.1"/>
</linearGradient>
<linearGradient id="paint1_linear_2166_1639" x1="74.9987" y1="75.6638" x2="74.9987" y2="24.9063" gradientUnits="userSpaceOnUse">
<stop stop-color="#808080" stop-opacity="0.25"/>
<stop offset="0.54" stop-color="#808080" stop-opacity="0.12"/>
<stop offset="1" stop-color="#808080" stop-opacity="0.1"/>
</linearGradient>
<linearGradient id="paint2_linear_2166_1639" x1="120.62" y1="197.792" x2="120.62" y2="-0.00337917" gradientUnits="userSpaceOnUse">
<stop stop-color="#808080" stop-opacity="0.25"/>
<stop offset="0.54" stop-color="#808080" stop-opacity="0.12"/>
<stop offset="1" stop-color="#808080" stop-opacity="0.1"/>
</linearGradient>
<linearGradient id="paint3_linear_2166_1639" x1="181.935" y1="179.354" x2="181.935" y2="85.1192" gradientUnits="userSpaceOnUse">
<stop stop-color="#808080" stop-opacity="0.25"/>
<stop offset="0.54" stop-color="#808080" stop-opacity="0.12"/>
<stop offset="1" stop-color="#808080" stop-opacity="0.1"/>
</linearGradient>
<linearGradient id="paint4_linear_2166_1639" x1="152.041" y1="256.652" x2="152.041" y2="233.201" gradientUnits="userSpaceOnUse">
<stop stop-color="#808080" stop-opacity="0.25"/>
<stop offset="0.54" stop-color="#808080" stop-opacity="0.12"/>
<stop offset="1" stop-color="#808080" stop-opacity="0.1"/>
</linearGradient>
<linearGradient id="paint5_linear_2166_1639" x1="66.6793" y1="145.801" x2="66.6793" y2="103.86" gradientUnits="userSpaceOnUse">
<stop stop-color="#808080" stop-opacity="0.25"/>
<stop offset="0.54" stop-color="#808080" stop-opacity="0.12"/>
<stop offset="1" stop-color="#808080" stop-opacity="0.1"/>
</linearGradient>
<linearGradient id="paint6_linear_2166_1639" x1="65.0474" y1="180.567" x2="65.0474" y2="143.34" gradientUnits="userSpaceOnUse">
<stop stop-color="#808080" stop-opacity="0.25"/>
<stop offset="0.54" stop-color="#808080" stop-opacity="0.12"/>
<stop offset="1" stop-color="#808080" stop-opacity="0.1"/>
</linearGradient>
<linearGradient id="paint7_linear_2166_1639" x1="120.617" y1="129.47" x2="120.617" y2="68.3292" gradientUnits="userSpaceOnUse">
<stop stop-color="#808080" stop-opacity="0.25"/>
<stop offset="0.54" stop-color="#808080" stop-opacity="0.12"/>
<stop offset="1" stop-color="#808080" stop-opacity="0.1"/>
</linearGradient>
<linearGradient id="paint8_linear_2166_1639" x1="69.8003" y1="111.29" x2="69.8003" y2="64.7163" gradientUnits="userSpaceOnUse">
<stop stop-color="#808080" stop-opacity="0.25"/>
<stop offset="0.54" stop-color="#808080" stop-opacity="0.12"/>
<stop offset="1" stop-color="#808080" stop-opacity="0.1"/>
</linearGradient>
</defs>
</svg>
